<?xml version="1.0" encoding="UTF-8" standalone="no"?>
<!-- Created with Inkscape (http://www.inkscape.org/) -->

<svg
   xmlns:dc="http://purl.org/dc/elements/1.1/"
   xmlns:cc="http://creativecommons.org/ns#"
   xmlns:rdf="http://www.w3.org/1999/02/22-rdf-syntax-ns#"
   xmlns:svg="http://www.w3.org/2000/svg"
   xmlns="http://www.w3.org/2000/svg"
   xmlns:sodipodi="http://sodipodi.sourceforge.net/DTD/sodipodi-0.dtd"
   xmlns:inkscape="http://www.inkscape.org/namespaces/inkscape"
   width="120"
   height="52"
   viewBox="0 0 31.749998 13.758334"
   version="1.1"
   id="svg8"
   inkscape:version="0.92.1 r15371"
   sodipodi:docname="Logo Verde.svg">
  <defs
     id="defs2" />
  <sodipodi:namedview
     id="base"
     pagecolor="#ffffff"
     bordercolor="#666666"
     borderopacity="1.0"
     inkscape:pageopacity="0.0"
     inkscape:pageshadow="2"
     inkscape:zoom="2.8284271"
     inkscape:cx="100.84835"
     inkscape:cy="-8.1866838"
     inkscape:document-units="px"
     inkscape:current-layer="g4518"
     showgrid="false"
     units="px"
     inkscape:snap-page="true"
     showguides="false"
     inkscape:guide-bbox="true"
     inkscape:snap-bbox="true"
     inkscape:bbox-paths="true"
     inkscape:window-width="1366"
     inkscape:window-height="715"
     inkscape:window-x="-8"
     inkscape:window-y="-8"
     inkscape:window-maximized="1"
     inkscape:snap-bbox-midpoints="true"
     inkscape:lockguides="false"
     inkscape:object-paths="false"
     inkscape:snap-intersection-paths="false"
     inkscape:snap-smooth-nodes="false"
     inkscape:object-nodes="false"
     inkscape:bbox-nodes="true">
    <sodipodi:guide
       position="111.61495,63.311011"
       orientation="1,0"
       id="guide4517"
       inkscape:locked="false" />
    <sodipodi:guide
       position="44.64637,59.874381"
       orientation="0,1"
       id="guide4543"
       inkscape:locked="false" />
    <sodipodi:guide
       position="60.292244,68.673236"
       orientation="0,1"
       id="guide4545"
       inkscape:locked="false" />
    <sodipodi:guide
       position="44.756029,72.257151"
       orientation="0,1"
       id="guide4626"
       inkscape:locked="false" />
    <sodipodi:guide
       position="45.537272,74.109238"
       orientation="0,1"
       id="guide4630"
       inkscape:locked="false" />
    <sodipodi:guide
       position="44.756027,58.022291"
       orientation="0,1"
       id="guide4634"
       inkscape:locked="false" />
    <sodipodi:guide
       position="44.756027,67.402606"
       orientation="1,0"
       id="guide4636"
       inkscape:locked="false" />
    <sodipodi:guide
       position="60.453023,70.525317"
       orientation="0,1"
       id="guide4638"
       inkscape:locked="false" />
    <sodipodi:guide
       position="51.893719,64.849609"
       orientation="0.70710678,0.70710678"
       id="guide4640"
       inkscape:locked="false" />
    <sodipodi:guide
       position="50.766927,77.076431"
       orientation="1,0"
       id="guide4642"
       inkscape:locked="false" />
    <sodipodi:guide
       position="46.351216,65.99553"
       orientation="0,1"
       id="guide4644"
       inkscape:locked="false" />
    <sodipodi:guide
       position="73.421871,46.405953"
       orientation="0,1"
       id="guide4650"
       inkscape:locked="false" />
  </sodipodi:namedview>
  <metadata
     id="metadata5">
    <rdf:RDF>
      <cc:Work
         rdf:about="">
        <dc:format>image/svg+xml</dc:format>
        <dc:type
           rdf:resource="http://purl.org/dc/dcmitype/StillImage" />
        <dc:title></dc:title>
      </cc:Work>
    </rdf:RDF>
  </metadata>
  <g
     inkscape:label="Camada 1"
     inkscape:groupmode="layer"
     id="layer1"
     transform="translate(0,-283.24166)">
    <g
       inkscape:export-ydpi="104.43"
       inkscape:export-xdpi="104.43"
       style="fill:#77d3ba;fill-opacity:1"
       id="g4518"
       transform="translate(0,-31.869384)">
      <path
         style="color:#000000;font-style:normal;font-variant:normal;font-weight:normal;font-stretch:normal;font-size:medium;line-height:normal;font-family:sans-serif;font-variant-ligatures:normal;font-variant-position:normal;font-variant-caps:normal;font-variant-numeric:normal;font-variant-alternates:normal;font-feature-settings:normal;text-indent:0;text-align:start;text-decoration:none;text-decoration-line:none;text-decoration-style:solid;text-decoration-color:#000000;letter-spacing:normal;word-spacing:normal;text-transform:none;writing-mode:lr-tb;direction:ltr;text-orientation:mixed;dominant-baseline:auto;baseline-shift:baseline;text-anchor:start;white-space:normal;shape-padding:0;clip-rule:nonzero;display:inline;overflow:visible;visibility:visible;opacity:1;isolation:auto;mix-blend-mode:normal;color-interpolation:sRGB;color-interpolation-filters:linearRGB;solid-color:#000000;solid-opacity:1;vector-effect:none;fill:#77d3ba;fill-opacity:1;fill-rule:nonzero;stroke:none;stroke-width:0.92098647;stroke-linecap:butt;stroke-linejoin:round;stroke-miterlimit:4;stroke-dasharray:none;stroke-dashoffset:0;stroke-opacity:1;color-rendering:auto;image-rendering:auto;shape-rendering:auto;text-rendering:auto;enable-background:accumulate"
         d="M 5.3132096,315.00263 C 2.3843522,315.00263 0,317.38678 0,320.31563 c 0,2.92885 2.3843522,5.3123 5.3132096,5.3123 1.0566123,0 2.0432631,-0.31083 2.8720121,-0.84453 l 3.6369533,3.63673 0.374375,-0.37437 c 0.06803,-0.0681 0.162715,-0.16074 0.169755,-0.24052 0.01241,-0.1401 -0.100434,-0.24375 -0.14659,-0.28991 -1.232375,-1.23177 -2.4641309,-2.46458 -3.6958589,-3.69633 -0.118236,-0.11831 -0.1594296,-0.17328 -0.2704952,-0.16123 -0.093464,0.0105 -0.1464328,0.0473 -0.2572276,0.13312 -0.7418631,0.57411 -1.6699636,0.91671 -2.6829132,0.91671 -2.4311191,0 -4.39199945,-1.96087 -4.39199945,-4.39199 0,-2.43112 1.96088035,-4.39268 4.39199945,-4.39268 1.6086207,0 3.0260312,0.85268 3.7738872,2.148 0.095751,0.16579 0.1851384,0.23626 0.2810624,0.23226 0.066136,-0.002 0.1374352,-0.0398 0.226648,-0.0833 l 0.4910733,-0.24103 C 9.2210753,316.2151 7.4054545,315.00274 5.3132201,315.00274 Z"
         id="path4506"
         inkscape:connector-curvature="0"
         sodipodi:nodetypes="cssccsssccccssssscsc"
         inkscape:export-xdpi="522.13409"
         inkscape:export-ydpi="522.13409" />
      <g
         aria-label="Buscando"
         style="font-style:normal;font-weight:normal;font-size:17.06618118px;line-height:1.25;font-family:sans-serif;text-align:end;letter-spacing:0px;word-spacing:0px;text-anchor:end;fill:#77d3ba;fill-opacity:1;stroke:none;stroke-width:0.42665452"
         id="text4512"
         transform="matrix(0.43511173,0,0,0.43511173,-16.814975,219.83299)">
        <path
           d="m 49.508961,235.16337 q 0.614382,0 1.006904,-0.14507 0.401056,-0.15359 0.639982,-0.40105 0.238927,-0.24746 0.332791,-0.56319 0.09386,-0.32425 0.09386,-0.66558 0,-0.37545 -0.11093,-0.67411 -0.110931,-0.29866 -0.35839,-0.50345 -0.24746,-0.21333 -0.648515,-0.32426 -0.392522,-0.11093 -0.972772,-0.11093 h -2.175939 v 3.38764 z m -2.193005,-8.47336 v 3.34497 h 1.681019 q 0.537585,0 0.955706,-0.0853 0.418122,-0.0939 0.699714,-0.29013 0.281592,-0.19626 0.426654,-0.51198 0.153596,-0.32426 0.153596,-0.77651 0,-0.46079 -0.127996,-0.78505 -0.119464,-0.32426 -0.375456,-0.52052 Q 50.4732,226.86923 50.080678,226.7839 49.688156,226.69 49.150571,226.69 Z m 1.834615,-1.94555 q 1.245831,0 2.124739,0.23893 0.887442,0.23039 1.442093,0.66558 0.563184,0.42665 0.819176,1.04104 0.255993,0.61438 0.255993,1.37382 0,0.42666 -0.127996,0.81918 -0.119463,0.39252 -0.383989,0.74238 -0.255993,0.34132 -0.665581,0.62292 -0.409589,0.28159 -0.972773,0.47785 1.262898,0.29866 1.868747,0.97277 0.60585,0.67412 0.60585,1.74928 0,0.78505 -0.307192,1.45916 -0.298658,0.67412 -0.878908,1.16904 -0.58025,0.49492 -1.433559,0.77651 -0.844776,0.27306 -1.945545,0.27306 h -4.795597 v -12.38152 z"
           style="font-style:normal;font-variant:normal;font-weight:800;font-stretch:normal;font-family:lato;-inkscape-font-specification:'lato Ultra-Bold';text-align:end;letter-spacing:-0.85989583px;text-anchor:end;fill:#77d3ba;fill-opacity:1;stroke-width:0.42665452"
           id="path4531"
           inkscape:connector-curvature="0" />
        <path
           d="m 62.494004,228.32836 v 8.79762 h -1.450625 q -0.452254,0 -0.58025,-0.40959 l -0.153596,-0.61438 q -0.264526,0.25599 -0.546118,0.46932 -0.281592,0.21332 -0.605849,0.36692 -0.315724,0.15359 -0.69118,0.23893 -0.366923,0.0853 -0.802111,0.0853 -0.71678,0 -1.279963,-0.24746 -0.554651,-0.24746 -0.930107,-0.69118 -0.375456,-0.44372 -0.571717,-1.05811 -0.196262,-0.61438 -0.196262,-1.34823 v -5.58917 h 2.355133 v 5.58917 q 0,0.73385 0.332791,1.14344 0.341324,0.40105 1.006905,0.40105 0.494919,0 0.930107,-0.21332 0.435187,-0.22186 0.827709,-0.59732 v -6.32302 z"
           style="font-style:normal;font-variant:normal;font-weight:800;font-stretch:normal;font-family:lato;-inkscape-font-specification:'lato Ultra-Bold';text-align:end;letter-spacing:-0.85989583px;text-anchor:end;fill:#77d3ba;fill-opacity:1;stroke-width:0.42665452"
           id="path4533"
           inkscape:connector-curvature="0" />
        <path
           d="m 69.047763,230.13738 q -0.09386,0.14506 -0.196261,0.21332 -0.09386,0.0597 -0.264526,0.0597 -0.170662,0 -0.349856,-0.0853 -0.179195,-0.0853 -0.401056,-0.17919 -0.22186,-0.1024 -0.511985,-0.18773 -0.281592,-0.0853 -0.657048,-0.0853 -0.571717,0 -0.887442,0.23893 -0.315724,0.23039 -0.315724,0.61438 0,0.26452 0.179195,0.44372 0.179195,0.17919 0.46932,0.31572 0.298658,0.128 0.674114,0.24746 0.375456,0.11093 0.767978,0.24746 0.401056,0.13653 0.776512,0.31573 0.375456,0.17919 0.665581,0.45225 0.298658,0.26453 0.477853,0.64852 0.179195,0.37545 0.179195,0.91304 0,0.63998 -0.238927,1.1861 -0.230393,0.53758 -0.682647,0.9301 -0.452254,0.39253 -1.126368,0.61439 -0.674114,0.22186 -1.553023,0.22186 -0.452253,0 -0.895974,-0.0853 -0.443721,-0.0768 -0.844776,-0.22187 -0.401055,-0.15359 -0.750912,-0.34985 -0.349857,-0.19626 -0.60585,-0.42666 l 0.546118,-0.8789 q 0.09386,-0.1536 0.230394,-0.23893 0.145062,-0.0853 0.366923,-0.0853 0.213327,0 0.392522,0.11093 0.179195,0.10239 0.401055,0.23039 0.22186,0.11946 0.520519,0.23039 0.307191,0.1024 0.759445,0.1024 0.341323,0 0.588783,-0.0768 0.24746,-0.0768 0.401055,-0.20479 0.153596,-0.13653 0.22186,-0.29866 0.0768,-0.17066 0.0768,-0.34985 0,-0.29013 -0.187728,-0.46932 -0.179195,-0.18773 -0.477853,-0.32426 -0.290125,-0.13653 -0.674114,-0.24746 -0.383989,-0.11093 -0.785044,-0.24746 -0.392522,-0.13653 -0.776511,-0.32426 -0.375456,-0.18773 -0.674115,-0.46932 -0.290125,-0.29012 -0.477853,-0.70825 -0.179195,-0.41812 -0.179195,-1.01543 0,-0.54612 0.213328,-1.03251 0.213327,-0.49492 0.639981,-0.87037 0.426655,-0.37546 1.058104,-0.59732 0.639981,-0.22186 1.476224,-0.22186 0.93864,0 1.706618,0.30719 0.767979,0.30719 1.262898,0.80211 z"
           style="font-style:normal;font-variant:normal;font-weight:800;font-stretch:normal;font-family:lato;-inkscape-font-specification:'lato Ultra-Bold';text-align:end;letter-spacing:-0.85989583px;text-anchor:end;fill:#77d3ba;fill-opacity:1;stroke-width:0.42665452"
           id="path4535"
           inkscape:connector-curvature="0" />
        <path
           d="m 76.66736,230.29097 q -0.102397,0.13653 -0.204794,0.21333 -0.102397,0.0683 -0.290125,0.0683 -0.170662,0 -0.332791,-0.0939 -0.153595,-0.1024 -0.358389,-0.21333 -0.204795,-0.11946 -0.486387,-0.21333 -0.281592,-0.10239 -0.699713,-0.10239 -0.529052,0 -0.921574,0.19626 -0.383989,0.18773 -0.639982,0.54612 -0.255992,0.35839 -0.383989,0.87037 -0.119463,0.51199 -0.119463,1.15197 0,1.34823 0.537585,2.06501 0.546118,0.71678 1.484758,0.71678 0.324257,0 0.55465,-0.0512 0.238927,-0.0597 0.409589,-0.14506 0.179195,-0.0853 0.307191,-0.18773 0.127996,-0.1024 0.238927,-0.18773 0.119463,-0.0853 0.230393,-0.13653 0.119463,-0.0597 0.264526,-0.0597 0.273059,0 0.426654,0.20479 l 0.674115,0.85331 q -0.375456,0.43519 -0.802111,0.72531 -0.426655,0.2816 -0.887441,0.45226 -0.452254,0.16213 -0.921574,0.22186 -0.46932,0.0683 -0.930107,0.0683 -0.810644,0 -1.535956,-0.29866 -0.725313,-0.30719 -1.271431,-0.88744 -0.546118,-0.58025 -0.870375,-1.42502 -0.315724,-0.84478 -0.315724,-1.92848 0,-0.96424 0.281592,-1.79195 0.281592,-0.82771 0.827709,-1.43356 0.546118,-0.60585 1.348229,-0.94717 0.810643,-0.34986 1.868746,-0.34986 1.006905,0 1.76635,0.32426 0.759445,0.32426 1.365295,0.93864 z"
           style="font-style:normal;font-variant:normal;font-weight:800;font-stretch:normal;font-family:lato;-inkscape-font-specification:'lato Ultra-Bold';text-align:end;letter-spacing:-0.85989583px;text-anchor:end;fill:#77d3ba;fill-opacity:1;stroke-width:0.42665452"
           id="path4537"
           inkscape:connector-curvature="0" />
        <path
           d="m 82.29048,233.44821 q -0.861842,0.0427 -1.433559,0.1536 -0.571717,0.1024 -0.913041,0.27306 -0.33279,0.17066 -0.477853,0.39252 -0.136529,0.21333 -0.136529,0.46932 0,0.51199 0.281592,0.72531 0.290125,0.21333 0.80211,0.21333 0.588784,0 1.015438,-0.20479 0.435188,-0.21333 0.861842,-0.65705 z m -4.795597,-3.89962 q 0.776512,-0.69971 1.715152,-1.04103 0.93864,-0.34986 2.030875,-0.34986 0.785045,0 1.399427,0.25599 0.622916,0.25599 1.04957,0.71678 0.435188,0.45225 0.665581,1.0837 0.230394,0.63145 0.230394,1.38236 v 5.52945 h -1.07517 q -0.33279,0 -0.511985,-0.0939 -0.170662,-0.0939 -0.281592,-0.39252 l -0.187728,-0.56318 q -0.332791,0.29012 -0.648515,0.51198 -0.307191,0.22186 -0.639982,0.37546 -0.33279,0.14506 -0.716779,0.22186 -0.375456,0.0768 -0.844776,0.0768 -0.580251,0 -1.058104,-0.1536 -0.477853,-0.1536 -0.827709,-0.45225 -0.341324,-0.30719 -0.529052,-0.75945 -0.187728,-0.45225 -0.187728,-1.04104 0,-0.48638 0.24746,-0.97277 0.247459,-0.48638 0.844776,-0.87891 0.605849,-0.40105 1.604221,-0.65704 1.006904,-0.26453 2.517261,-0.29866 v -0.45226 q 0,-0.82771 -0.349856,-1.2117 -0.349857,-0.39252 -1.006905,-0.39252 -0.486386,0 -0.810644,0.11947 -0.324257,0.11093 -0.571717,0.24746 -0.238926,0.12799 -0.452254,0.24746 -0.213327,0.11093 -0.494919,0.11093 -0.247459,0 -0.418121,-0.11947 -0.162129,-0.12799 -0.273059,-0.29866 z"
           style="font-style:normal;font-variant:normal;font-weight:800;font-stretch:normal;font-family:lato;-inkscape-font-specification:'lato Ultra-Bold';text-align:end;letter-spacing:-0.85989583px;text-anchor:end;fill:#77d3ba;fill-opacity:1;stroke-width:0.42665452"
           id="path4539"
           inkscape:connector-curvature="0" />
        <path
           d="m 87.748804,229.35233 q 0.264526,-0.25599 0.546118,-0.46932 0.290125,-0.21333 0.605849,-0.36692 0.324257,-0.1536 0.69118,-0.23893 0.375456,-0.0853 0.810644,-0.0853 0.71678,0 1.27143,0.24746 0.554651,0.24746 0.930107,0.69118 0.383989,0.44372 0.571717,1.0581 0.196261,0.61439 0.196261,1.34823 v 5.58918 h -2.346599 v -5.58918 q 0,-0.73384 -0.341324,-1.1349 -0.341324,-0.40959 -1.006905,-0.40959 -0.494919,0 -0.930107,0.21333 -0.435187,0.21333 -0.827709,0.59732 v 6.32302 h -2.355133 v -8.79762 h 1.450625 q 0.443721,0 0.588783,0.40959 z"
           style="font-style:normal;font-variant:normal;font-weight:800;font-stretch:normal;font-family:lato;-inkscape-font-specification:'lato Ultra-Bold';text-align:end;letter-spacing:-0.85989583px;text-anchor:end;fill:#77d3ba;fill-opacity:1;stroke-width:0.42665452"
           id="path4541"
           inkscape:connector-curvature="0" />
        <path
           d="m 99.806407,230.61523 q -0.332791,-0.38399 -0.725313,-0.53759 -0.383989,-0.15359 -0.819176,-0.15359 -0.426655,0 -0.776512,0.16213 -0.349856,0.16213 -0.605849,0.51198 -0.24746,0.34133 -0.383989,0.87891 -0.13653,0.53759 -0.13653,1.27996 0,0.73385 0.11093,1.24584 0.110931,0.51198 0.315725,0.82771 0.213327,0.31572 0.511985,0.46078 0.298658,0.13653 0.665581,0.13653 0.622916,0 1.041037,-0.24746 0.426655,-0.24746 0.802111,-0.69971 z m 2.355133,-6.21209 v 12.72284 h -1.45063 q -0.45225,0 -0.58025,-0.40959 l -0.196257,-0.76798 q -0.264526,0.29013 -0.563184,0.52905 -0.290125,0.23893 -0.631448,0.41812 -0.341324,0.17066 -0.733846,0.26453 -0.392522,0.0939 -0.853309,0.0939 -0.708247,0 -1.29703,-0.29866 -0.588783,-0.29865 -1.023971,-0.87037 -0.426654,-0.58025 -0.665581,-1.41649 -0.238927,-0.83625 -0.238927,-1.91142 0,-0.9813 0.264526,-1.82608 0.273059,-0.84477 0.767978,-1.45916 0.49492,-0.61438 1.194633,-0.96423 0.699714,-0.34986 1.553023,-0.34986 0.716779,0 1.203165,0.21333 0.49492,0.21332 0.895975,0.58025 v -4.54814 z"
           style="font-style:normal;font-variant:normal;font-weight:800;font-stretch:normal;font-family:lato;-inkscape-font-specification:'lato Ultra-Bold';text-align:end;letter-spacing:-0.85989583px;text-anchor:end;fill:#77d3ba;fill-opacity:1;stroke-width:0.42665452"
           id="path4543"
           inkscape:connector-curvature="0" />
        <path
           d="m 107.21188,228.19183 q 0.98984,0 1.80048,0.31573 0.81064,0.31572 1.39089,0.9045 0.58025,0.58025 0.89598,1.4165 0.31572,0.83624 0.31572,1.88581 0,1.04957 -0.31572,1.89434 -0.31573,0.83625 -0.89598,1.42503 -0.58025,0.58878 -1.39089,0.90451 -0.81064,0.31572 -1.80048,0.31572 -0.99837,0 -1.81755,-0.31572 -0.81065,-0.31573 -1.3909,-0.90451 -0.58025,-0.58878 -0.9045,-1.42503 -0.31573,-0.84477 -0.31573,-1.89434 0,-1.04957 0.31573,-1.88581 0.32425,-0.83625 0.9045,-1.4165 0.58025,-0.58878 1.3909,-0.9045 0.81918,-0.31573 1.81755,-0.31573 z m 0,7.29579 q 1.0069,0 1.49329,-0.69118 0.48638,-0.69971 0.48638,-2.07354 0,-1.36529 -0.48638,-2.05647 -0.48639,-0.69972 -1.49329,-0.69972 -1.03251,0 -1.51889,0.69972 -0.48639,0.69118 -0.48639,2.05647 0,1.37383 0.48639,2.07354 0.48638,0.69118 1.51889,0.69118 z"
           style="font-style:normal;font-variant:normal;font-weight:800;font-stretch:normal;font-family:lato;-inkscape-font-specification:'lato Ultra-Bold';text-align:end;letter-spacing:-0.85989583px;text-anchor:end;fill:#77d3ba;fill-opacity:1;stroke-width:0.42665452"
           id="path4545"
           inkscape:connector-curvature="0" />
      </g>
      <g
         aria-label="Saúde"
         style="font-style:normal;font-weight:normal;font-size:10.58333302px;line-height:1.25;font-family:sans-serif;letter-spacing:0px;word-spacing:0px;fill:#77d3ba;fill-opacity:1;stroke:none;stroke-width:0.26458332"
         id="text4516"
         transform="matrix(0.43511173,0,0,0.43511173,-16.814975,219.83299)">
        <path
           d="m 76.336375,240.44819 q -0.119463,0.19626 -0.247459,0.29012 -0.119464,0.0853 -0.315725,0.0853 -0.187728,0 -0.409588,-0.12799 -0.213327,-0.13653 -0.503453,-0.29013 -0.290125,-0.15359 -0.665581,-0.28159 -0.375456,-0.13653 -0.878908,-0.13653 -0.887442,0 -1.331162,0.40106 -0.443721,0.39252 -0.443721,1.0325 0,0.40959 0.238926,0.68265 0.24746,0.26452 0.639982,0.46078 0.401056,0.19627 0.904508,0.34986 0.503452,0.1536 1.032504,0.34133 0.529052,0.17919 1.032504,0.42665 0.503453,0.24746 0.895975,0.62292 0.401055,0.37545 0.639982,0.92157 0.247459,0.53758 0.247459,1.3141 0,0.84477 -0.298658,1.58715 -0.290125,0.73385 -0.844776,1.2885 -0.554651,0.54611 -1.373828,0.86184 -0.810643,0.31572 -1.843147,0.31572 -0.588784,0 -1.177567,-0.11946 -0.58025,-0.11946 -1.126368,-0.33279 -0.537585,-0.21333 -1.015438,-0.51199 -0.477853,-0.29865 -0.836243,-0.66558 l 0.750912,-1.2117 q 0.09386,-0.13653 0.24746,-0.22186 0.153595,-0.0939 0.324257,-0.0939 0.230394,0 0.486386,0.17066 0.255993,0.17066 0.588784,0.37546 0.33279,0.20479 0.767978,0.37545 0.443721,0.17067 1.058103,0.17067 0.895975,0 1.382361,-0.40959 0.494919,-0.40959 0.494919,-1.22023 0,-0.46932 -0.247459,-0.75945 -0.238927,-0.29013 -0.631449,-0.48639 -0.392522,-0.19626 -0.895975,-0.33279 -0.503452,-0.14506 -1.032504,-0.31572 -0.529051,-0.17066 -1.032504,-0.40959 -0.503452,-0.23893 -0.895974,-0.63145 -0.392523,-0.39252 -0.639982,-0.97277 -0.238927,-0.58025 -0.238927,-1.44209 0,-0.69118 0.273059,-1.3397 0.273059,-0.64851 0.802111,-1.15197 0.529051,-0.50345 1.29703,-0.81064 0.776511,-0.30719 1.774883,-0.30719 1.117835,0 2.065008,0.34986 0.955706,0.34132 1.612754,0.9557 z"
           style="font-style:normal;font-variant:normal;font-weight:800;font-stretch:normal;font-size:17.06618309px;font-family:Lato;-inkscape-font-specification:'Lato Ultra-Bold';text-align:end;letter-spacing:-0.85989583px;text-anchor:end;fill:#77d3ba;fill-opacity:1;stroke-width:0.26458332"
           id="path4520"
           inkscape:connector-curvature="0" />
        <path
           d="m 82.344285,246.77974 q -0.861843,0.0427 -1.43356,0.1536 -0.571717,0.10239 -0.913041,0.27306 -0.33279,0.17066 -0.477853,0.39252 -0.136529,0.21333 -0.136529,0.46932 0,0.51198 0.281592,0.72531 0.290125,0.21333 0.80211,0.21333 0.588784,0 1.015438,-0.2048 0.435188,-0.21332 0.861843,-0.65704 z m -4.795598,-3.89962 q 0.776511,-0.69971 1.715151,-1.04104 0.938641,-0.34985 2.030876,-0.34985 0.785045,0 1.399427,0.25599 0.622916,0.25599 1.049571,0.71678 0.435187,0.45225 0.665581,1.0837 0.230393,0.63145 0.230393,1.38236 v 5.52944 h -1.075169 q -0.332791,0 -0.511986,-0.0939 -0.170662,-0.0939 -0.281592,-0.39252 l -0.187728,-0.56319 q -0.33279,0.29013 -0.648515,0.51199 -0.307191,0.22186 -0.639982,0.37546 -0.33279,0.14506 -0.716779,0.22186 -0.375456,0.0768 -0.844776,0.0768 -0.580251,0 -1.058104,-0.15359 -0.477853,-0.1536 -0.82771,-0.45226 -0.341323,-0.30719 -0.529051,-0.75944 -0.187728,-0.45225 -0.187728,-1.04104 0,-0.48638 0.247459,-0.97277 0.24746,-0.48639 0.844776,-0.87891 0.60585,-0.40105 1.604222,-0.65705 1.006904,-0.26452 2.517262,-0.29866 v -0.45225 q 0,-0.82771 -0.349857,-1.2117 -0.349857,-0.39252 -1.006905,-0.39252 -0.486386,0 -0.810644,0.11946 -0.324257,0.11093 -0.571717,0.24746 -0.238926,0.128 -0.452254,0.24746 -0.213327,0.11093 -0.494919,0.11093 -0.24746,0 -0.418121,-0.11946 -0.162129,-0.128 -0.273059,-0.29866 z"
           style="font-style:normal;font-variant:normal;font-weight:800;font-stretch:normal;font-size:17.06618309px;font-family:Lato;-inkscape-font-specification:'Lato Ultra-Bold';text-align:end;letter-spacing:-0.85989583px;text-anchor:end;fill:#77d3ba;fill-opacity:1;stroke-width:0.26458332"
           id="path4522"
           inkscape:connector-curvature="0" />
        <path
           d="m 93.340586,241.65989 v 8.79761 H 91.88996 q -0.452253,0 -0.58025,-0.40958 l -0.153595,-0.61439 q -0.264526,0.256 -0.546118,0.46932 -0.281592,0.21333 -0.60585,0.36693 -0.315724,0.15359 -0.69118,0.23892 -0.366923,0.0853 -0.802111,0.0853 -0.71678,0 -1.279964,-0.24746 -0.554651,-0.24746 -0.930107,-0.69118 -0.375456,-0.44372 -0.571717,-1.0581 -0.196261,-0.61438 -0.196261,-1.34823 v -5.58917 h 2.355133 v 5.58917 q 0,0.73385 0.332791,1.14344 0.341324,0.40105 1.006905,0.40105 0.494919,0 0.930107,-0.21333 0.435187,-0.22186 0.82771,-0.59731 v -6.32302 z m -0.708247,-3.72043 -2.158872,2.23567 q -0.170662,0.17919 -0.341323,0.25599 -0.162129,0.0683 -0.426655,0.0683 h -1.416493 l 1.194633,-2.08208 q 0.127996,-0.23892 0.307191,-0.35839 0.187728,-0.11946 0.563184,-0.11946 z"
           style="font-style:normal;font-variant:normal;font-weight:800;font-stretch:normal;font-size:17.06618309px;font-family:Lato;-inkscape-font-specification:'Lato Ultra-Bold';text-align:end;letter-spacing:-0.85989583px;text-anchor:end;fill:#77d3ba;fill-opacity:1;stroke-width:0.26458332"
           id="path4524"
           inkscape:connector-curvature="0" />
        <path
           d="m 99.860213,243.94676 q -0.33279,-0.38399 -0.725313,-0.53759 -0.383989,-0.15359 -0.819176,-0.15359 -0.426655,0 -0.776512,0.16212 -0.349857,0.16213 -0.605849,0.51199 -0.24746,0.34132 -0.383989,0.87891 -0.13653,0.53758 -0.13653,1.27996 0,0.73385 0.11093,1.24583 0.110931,0.51199 0.315725,0.82771 0.213327,0.31573 0.511985,0.46079 0.298658,0.13653 0.665581,0.13653 0.622916,0 1.041038,-0.24746 0.426654,-0.24746 0.80211,-0.69971 z m 2.355137,-6.2121 v 12.72284 h -1.45063 q -0.45225,0 -0.58025,-0.40958 l -0.196261,-0.76798 q -0.264525,0.29012 -0.563184,0.52905 -0.290125,0.23893 -0.631448,0.41812 -0.341324,0.17066 -0.733846,0.26453 -0.392522,0.0939 -0.853309,0.0939 -0.708247,0 -1.29703,-0.29866 -0.588784,-0.29866 -1.023971,-0.87037 -0.426655,-0.58025 -0.665581,-1.4165 -0.238927,-0.83624 -0.238927,-1.91141 0,-0.9813 0.264526,-1.82608 0.273059,-0.84478 0.767978,-1.45916 0.494919,-0.61438 1.194633,-0.96424 0.699713,-0.34985 1.553023,-0.34985 0.716779,0 1.203165,0.21332 0.49492,0.21333 0.895975,0.58025 v -4.54814 z"
           style="font-style:normal;font-variant:normal;font-weight:800;font-stretch:normal;font-size:17.06618309px;font-family:Lato;-inkscape-font-specification:'Lato Ultra-Bold';text-align:end;letter-spacing:-0.85989583px;text-anchor:end;fill:#77d3ba;fill-opacity:1;stroke-width:0.26458332"
           id="path4526"
           inkscape:connector-curvature="0" />
        <path
           d="m 108.87844,245.02192 q 0,-0.36692 -0.1024,-0.69971 -0.0939,-0.33279 -0.30719,-0.58878 -0.21333,-0.25599 -0.53759,-0.40106 -0.32425,-0.15359 -0.77651,-0.15359 -0.84477,0 -1.32263,0.47785 -0.47785,0.47785 -0.62291,1.36529 z m -3.70336,1.39943 q 0.11093,1.2373 0.69971,1.80902 0.59732,0.57171 1.55302,0.57171 0.48639,0 0.83624,-0.11093 0.35839,-0.11946 0.62292,-0.25599 0.27306,-0.14506 0.48639,-0.25599 0.22186,-0.11946 0.43518,-0.11946 0.27306,0 0.42666,0.20479 l 0.68265,0.85331 q -0.37546,0.43519 -0.82771,0.72531 -0.45226,0.28159 -0.93864,0.45226 -0.48639,0.16212 -0.98131,0.22186 -0.49492,0.0683 -0.95571,0.0683 -0.92157,0 -1.72368,-0.29866 -0.79358,-0.30719 -1.39089,-0.89597 -0.58879,-0.59732 -0.93011,-1.47623 -0.34132,-0.87891 -0.34132,-2.03941 0,-0.89597 0.29012,-1.68955 0.29866,-0.79358 0.85331,-1.38236 0.55465,-0.58878 1.34823,-0.93011 0.79358,-0.34985 1.79195,-0.34985 0.84477,0 1.55302,0.27306 0.71678,0.26452 1.22876,0.77651 0.52052,0.51198 0.80212,1.2629 0.29012,0.74237 0.29012,1.69808 0,0.26453 -0.0256,0.43519 -0.0256,0.17066 -0.0853,0.27306 -0.0597,0.10239 -0.16213,0.14506 -0.1024,0.0341 -0.26452,0.0341 z"
           style="font-style:normal;font-variant:normal;font-weight:800;font-stretch:normal;font-size:17.06618309px;font-family:Lato;-inkscape-font-specification:'Lato Ultra-Bold';text-align:end;letter-spacing:-0.85989583px;text-anchor:end;fill:#77d3ba;fill-opacity:1;stroke-width:0.26458332"
           id="path4528"
           inkscape:connector-curvature="0" />
      </g>
    </g>
  </g>
</svg>
