<?xml version="1.0" encoding="UTF-8" standalone="no"?>
<!-- Created with Inkscape (http://www.inkscape.org/) -->

<svg
   xmlns:dc="http://purl.org/dc/elements/1.1/"
   xmlns:cc="http://creativecommons.org/ns#"
   xmlns:rdf="http://www.w3.org/1999/02/22-rdf-syntax-ns#"
   xmlns:svg="http://www.w3.org/2000/svg"
   xmlns="http://www.w3.org/2000/svg"
   xmlns:sodipodi="http://sodipodi.sourceforge.net/DTD/sodipodi-0.dtd"
   xmlns:inkscape="http://www.inkscape.org/namespaces/inkscape"
   width="200"
   height="33"
   viewBox="0 0 52.916663 8.7312504"
   version="1.1"
   id="svg8"
   inkscape:version="0.92.1 r15371"
   sodipodi:docname="Logo SMD.svg">
  <defs
     id="defs2">
    <clipPath
       id="clipPath4529"
       clipPathUnits="userSpaceOnUse">
      <path
         inkscape:connector-curvature="0"
         id="path4527"
         d="M 0,83.001 H 248.002 V 0 H 0 Z" />
    </clipPath>
  </defs>
  <sodipodi:namedview
     id="base"
     pagecolor="#ffffff"
     bordercolor="#666666"
     borderopacity="1.0"
     inkscape:pageopacity="0.0"
     inkscape:pageshadow="2"
     inkscape:zoom="2.8284271"
     inkscape:cx="142.28008"
     inkscape:cy="20.210859"
     inkscape:document-units="px"
     inkscape:current-layer="g4518"
     showgrid="false"
     units="px"
     inkscape:snap-page="true"
     showguides="false"
     inkscape:guide-bbox="true"
     inkscape:snap-bbox="true"
     inkscape:bbox-paths="true"
     inkscape:window-width="1366"
     inkscape:window-height="715"
     inkscape:window-x="-8"
     inkscape:window-y="-8"
     inkscape:window-maximized="1"
     inkscape:snap-bbox-midpoints="true"
     inkscape:lockguides="false"
     inkscape:object-paths="false"
     inkscape:snap-intersection-paths="false"
     inkscape:snap-smooth-nodes="false"
     inkscape:object-nodes="false"
     inkscape:bbox-nodes="true">
    <sodipodi:guide
       position="111.61495,63.311011"
       orientation="1,0"
       id="guide4517"
       inkscape:locked="false" />
    <sodipodi:guide
       position="44.64637,59.874381"
       orientation="0,1"
       id="guide4543"
       inkscape:locked="false" />
    <sodipodi:guide
       position="60.292244,68.673236"
       orientation="0,1"
       id="guide4545"
       inkscape:locked="false" />
    <sodipodi:guide
       position="44.756029,72.257151"
       orientation="0,1"
       id="guide4626"
       inkscape:locked="false" />
    <sodipodi:guide
       position="45.537272,74.109238"
       orientation="0,1"
       id="guide4630"
       inkscape:locked="false" />
    <sodipodi:guide
       position="44.756027,58.022291"
       orientation="0,1"
       id="guide4634"
       inkscape:locked="false" />
    <sodipodi:guide
       position="44.756027,67.402606"
       orientation="1,0"
       id="guide4636"
       inkscape:locked="false" />
    <sodipodi:guide
       position="60.453023,70.525317"
       orientation="0,1"
       id="guide4638"
       inkscape:locked="false" />
    <sodipodi:guide
       position="51.893719,64.849609"
       orientation="0.70710678,0.70710678"
       id="guide4640"
       inkscape:locked="false" />
    <sodipodi:guide
       position="50.766927,77.076431"
       orientation="1,0"
       id="guide4642"
       inkscape:locked="false" />
    <sodipodi:guide
       position="46.351216,65.99553"
       orientation="0,1"
       id="guide4644"
       inkscape:locked="false" />
    <sodipodi:guide
       position="73.421871,46.405953"
       orientation="0,1"
       id="guide4650"
       inkscape:locked="false" />
  </sodipodi:namedview>
  <metadata
     id="metadata5">
    <rdf:RDF>
      <cc:Work
         rdf:about="">
        <dc:format>image/svg+xml</dc:format>
        <dc:type
           rdf:resource="http://purl.org/dc/dcmitype/StillImage" />
        <dc:title></dc:title>
      </cc:Work>
    </rdf:RDF>
  </metadata>
  <g
     inkscape:label="Camada 1"
     inkscape:groupmode="layer"
     id="layer1"
     transform="translate(0,-288.26874)">
    <g
       inkscape:export-ydpi="104.43"
       inkscape:export-xdpi="104.43"
       style="fill:#77d3ba;fill-opacity:1"
       id="g4518"
       transform="translate(0,-31.869384)">
      <g
         id="g4523"
         transform="matrix(0.29367296,0,0,-0.29367296,-9.2576286,337.59316)">
        <g
           id="g4525"
           clip-path="url(#clipPath4529)">
          <g
             id="g4531"
             transform="translate(54.7119,38.4092)">
            <path
               d="m 0,0 c 0,0.017 0.001,0.032 0.002,0.049 l 0.001,1.839 c 0,0.365 -0.006,1.04 -0.007,1.338 -0.419,4.462 -2.528,7.226 -4.171,8.67 -1.647,1.383 -3.594,2.313 -5.506,2.545 -0.745,0.092 -1.016,0.071 -1.651,0.071 1.001,-0.178 2.224,-0.835 3.219,-1.713 1.967,-1.738 3.208,-4.295 3.574,-8.039 0.111,-0.868 0.127,-1.473 0.127,-1.599 0.017,-0.145 0.028,-0.754 0.028,-0.87 V -0.517 -0.524 -2.887 -4.321 C -4.384,-8.484 0,-8.699 0,-8.699 L 0.002,0 Z"
               style="fill:#dedede;fill-opacity:1;fill-rule:nonzero;stroke:none"
               id="path4533"
               inkscape:connector-curvature="0" />
          </g>
          <g
             id="g4535"
             transform="translate(64.4663,44.02)">
            <path
               d="m 0,0 c 0.003,0.028 0.003,0.052 0.007,0.079 v 1.686 c 0,0.083 0.004,0.163 0.013,0.245 -0.219,2.262 -1.25,3.841 -2.254,4.866 -1.34,-1.291 -2.174,-3.103 -2.174,-5.111 0,-2.972 1.826,-5.514 4.415,-6.575 V 0 Z"
               style="fill:#dedede;fill-opacity:1;fill-rule:nonzero;stroke:none"
               id="path4537"
               inkscape:connector-curvature="0" />
          </g>
          <g
             id="g4539"
             transform="translate(73.9512,47.4561)">
            <path
               d="M 0,0 C -0.098,0.692 -0.383,1.376 -0.707,1.974 -0.955,1.719 -1.183,1.446 -1.238,1.26 -1.808,-0.607 0.328,-6.263 0.328,-6.263 H 0.335 C 0.217,-5.296 0.214,-4.405 0.214,-4.332 0.214,-4.305 0.274,-1.94 0,0"
               style="fill:#dedede;fill-opacity:1;fill-rule:nonzero;stroke:none"
               id="path4541"
               inkscape:connector-curvature="0" />
          </g>
          <g
             id="g4543"
             transform="translate(46.8979,50.9165)">
            <path
               d="M 0,0 C 0.021,-0.017 0.04,-0.037 0.059,-0.054 0.04,-0.037 0.02,-0.017 0,0"
               style="fill:#dedede;fill-opacity:1;fill-rule:nonzero;stroke:none"
               id="path4545"
               inkscape:connector-curvature="0" />
          </g>
          <g
             id="g4547"
             transform="translate(88.6152,54.687)">
            <path
               d="M 0,0 C 0,-0.023 -0.004,-0.102 -0.004,-0.125 V -0.187 -4.3 -4.301 c -1.97,1.551 -4.452,2.479 -7.155,2.479 -2.712,0 -5.204,-0.933 -7.177,-2.496 l -0.278,-0.234 c 0,0 -0.034,-0.029 -0.091,-0.077 0.061,-0.097 0.111,-0.181 0.144,-0.247 0.243,-0.48 0.976,-1.943 0.976,-3.961 0,-0.517 0.01,-1 0.022,-1.434 1.146,2.391 3.563,4.03 6.404,4.03 3.541,0 6.481,-2.573 7.054,-5.953 0.001,-0.006 0.005,-0.014 0.005,-0.018 h -0.004 c 0.049,-0.282 0.08,-0.567 0.093,-0.855 0.246,-2.474 0.282,-7.055 -2.258,-9.891 -0.689,-0.77 -1.523,-1.357 -2.497,-1.764 5.245,1.103 9.183,5.75 9.183,11.324 V -0.187 0 1.722 4.306 C 4.417,4.306 0.052,4.092 0,0"
               style="fill:#dedede;fill-opacity:1;fill-rule:nonzero;stroke:none"
               id="path4549"
               inkscape:connector-curvature="0" />
          </g>
          <g
             id="g4551"
             transform="translate(45.2266,48.1958)">
            <path
               d="M 0,0 C 2.079,-0.864 2.792,-1.61 3.909,-3.285 3.41,-0.606 2.381,1.296 -0.299,3.228 -2.674,4.94 -6.523,5.216 -9.291,3.919 c -2.223,-1.043 -4.412,-2.998 -4.412,-6.007 0,-4.688 3.135,-6.231 6.892,-6.838 2.498,-0.404 3.179,-1.724 3.179,-2.931 0,-0.52 -0.243,-2.174 -2.914,-2.174 -4.665,0.044 -5.703,4.374 -5.703,4.374 0,0 -2.181,-2.78 -0.316,-5.719 1.201,-1.685 3.373,-3.114 6.745,-3.114 5.409,0 7.134,4.222 7.134,6.661 0,2.864 -1.631,6.014 -5.397,6.899 -1.959,0.443 -4.442,0.588 -4.442,2.826 C -8.525,0.691 -3.603,1.5 0,0"
               style="fill:#dedede;fill-opacity:1;fill-rule:nonzero;stroke:none"
               id="path4553"
               inkscape:connector-curvature="0" />
          </g>
          <g
             id="g4555"
             transform="translate(49.5537,44.2056)">
            <path
               d="M 0,0 Z"
               style="fill:#dedede;fill-opacity:1;fill-rule:nonzero;stroke:none"
               id="path4557"
               inkscape:connector-curvature="0" />
          </g>
          <g
             id="g4559"
             transform="translate(61.248,51.7593)">
            <path
               d="m 0,0 c -1.109,0.716 -2.43,1.13 -3.845,1.13 -1.572,0 -3.023,-0.51 -4.2,-1.373 -0.413,-0.302 -0.944,-0.775 -1.393,-1.26 0.997,-1.137 2.074,-2.647 2.902,-4.527 v 0.061 c 0,1.484 1.312,2.686 2.656,2.686 1.485,0 2.69,-1.206 2.69,-2.691 v -6.591 -0.388 -0.692 c -0.004,-0.004 -0.007,-0.317 -0.007,-0.317 v -3.039 -0.144 -0.526 c 0,-4.163 4.42,-4.378 4.42,-4.378 v 4.904 0.144 9.262 H 3.218 c 10e-4,0.025 0.004,0.045 0.005,0.067 v 1.008 0.69 c 0,0.106 0.006,0.211 0.007,0.316 C 2.918,-2.666 1.181,-0.882 0,0"
               style="fill:#dedede;fill-opacity:1;fill-rule:nonzero;stroke:none"
               id="path4561"
               inkscape:connector-curvature="0" />
          </g>
          <g
             id="g4563"
             transform="translate(87.6694,36.9648)">
            <path
               d="m 0,0 c 0.047,0.3 0.081,0.623 0.102,0.954 -1.205,-2.254 -3.58,-3.788 -6.315,-3.788 -3.862,0 -7.004,3.039 -7.146,6.865 -0.008,0.059 -0.024,0.427 -0.024,0.427 -0.113,0.951 0,4.18 -0.335,6.033 -0.144,0.783 -0.467,1.571 -0.845,2.22 -1.27,1.935 -3.457,3.213 -5.943,3.213 -1.614,0 -3.1,-0.539 -4.294,-1.446 0.896,-0.923 1.733,-2.178 2.279,-3.88 0.493,0.56 1.212,0.914 2.016,0.914 1.485,0 2.689,-1.206 2.689,-2.692 l -0.001,-4.089 c -0.003,-0.136 0.001,-0.255 0.001,-0.409 0,-5.712 4.156,-10.451 9.6,-11.4 1.913,-0.041 3.555,0.215 5.551,1.802 C -1.401,-4.269 -0.354,-2.198 0,0"
               style="fill:#dedede;fill-opacity:1;fill-rule:nonzero;stroke:none"
               id="path4565"
               inkscape:connector-curvature="0" />
          </g>
          <g
             id="g4567"
             transform="translate(112.6685,45.3638)">
            <path
               d="m 0,0 c 0.281,-0.896 1.479,-1.09 2.342,-1.09 0.917,0 2.341,0.281 2.341,1.37 0,0.939 -1.133,1.014 -2.32,1.112 -1.489,0.118 -3.086,0.258 -3.086,1.866 0,1.424 1.64,2.06 2.956,2.06 1.133,0 2.546,-0.269 2.999,-1.499 C 5.395,3.387 4.661,3.193 4.499,3.56 4.176,4.38 3.021,4.52 2.244,4.52 1.521,4.52 0.119,4.229 0.119,3.247 0.119,2.309 1.198,2.211 2.449,2.114 3.928,1.985 5.513,1.909 5.513,0.291 c 0,-1.65 -1.845,-2.157 -3.171,-2.157 -1.101,0 -2.783,0.377 -3.14,1.672 C -0.928,0.28 -0.086,0.442 0,0"
               style="fill:#dedede;fill-opacity:1;fill-rule:nonzero;stroke:none"
               id="path4569"
               inkscape:connector-curvature="0" />
          </g>
          <g
             id="g4571"
             transform="translate(119.3501,50.3799)">
            <path
               d="M 0,0 C 0,0.54 0.81,0.529 0.81,0 V -6.451 C 0.81,-6.947 0,-6.969 0,-6.451 Z"
               style="fill:#dedede;fill-opacity:1;fill-rule:nonzero;stroke:none"
               id="path4573"
               inkscape:connector-curvature="0" />
          </g>
          <g
             id="g4575"
             transform="translate(122.0161,45.3638)">
            <path
               d="m 0,0 c 0.28,-0.896 1.478,-1.09 2.341,-1.09 0.917,0 2.341,0.281 2.341,1.37 0,0.939 -1.133,1.014 -2.32,1.112 -1.489,0.118 -3.086,0.258 -3.086,1.866 0,1.424 1.64,2.06 2.956,2.06 1.133,0 2.546,-0.269 2.999,-1.499 C 5.394,3.387 4.66,3.193 4.498,3.56 4.175,4.38 3.021,4.52 2.243,4.52 1.521,4.52 0.118,4.229 0.118,3.247 0.118,2.309 1.197,2.211 2.448,2.114 3.927,1.985 5.512,1.909 5.512,0.291 c 0,-1.65 -1.845,-2.157 -3.171,-2.157 -1.101,0 -2.783,0.377 -3.14,1.672 C -0.929,0.28 -0.087,0.442 0,0"
               style="fill:#dedede;fill-opacity:1;fill-rule:nonzero;stroke:none"
               id="path4577"
               inkscape:connector-curvature="0" />
          </g>
          <g
             id="g4579"
             transform="translate(133.5728,50.5313)">
            <path
               d="m 0,0 c 0.529,0 0.529,-0.745 0,-0.745 h -2.405 c 0,-1.942 0.01,-3.916 0.01,-5.858 0,-0.269 -0.226,-0.398 -0.41,-0.398 -0.183,0 -0.387,0.129 -0.387,0.398 v 5.858 h -2.396 c -0.507,0 -0.507,0.745 0,0.745 z"
               style="fill:#dedede;fill-opacity:1;fill-rule:nonzero;stroke:none"
               id="path4581"
               inkscape:connector-curvature="0" />
          </g>
          <g
             id="g4583"
             transform="translate(135.6802,44.3711)">
            <path
               d="m 0,0 h 4.261 c 0.453,0 0.518,-0.712 0,-0.712 H -0.28 c -0.303,0 -0.496,0.216 -0.496,0.475 v 5.923 c 0,0.248 0.193,0.463 0.496,0.463 h 4.551 c 0.465,0 0.443,-0.69 -0.01,-0.69 H 0 V 3.032 h 4.057 c 0.43,0 0.453,-0.691 0,-0.691 H 0 Z"
               style="fill:#dedede;fill-opacity:1;fill-rule:nonzero;stroke:none"
               id="path4585"
               inkscape:connector-curvature="0" />
          </g>
          <g
             id="g4587"
             transform="translate(147.7983,50.3584)">
            <path
               d="m 0,0 c 0.248,0.389 0.744,0.259 0.744,-0.194 v -6.214 c 0,-0.518 -0.788,-0.518 -0.788,0 V -1.5 l -2.2,-3.441 c -0.173,-0.312 -0.583,-0.312 -0.744,0 l -2.201,3.431 v -4.898 c 0,-0.518 -0.788,-0.518 -0.788,0 v 6.214 c 0,0.464 0.518,0.583 0.734,0.194 l 2.632,-4.099 z"
               style="fill:#dedede;fill-opacity:1;fill-rule:nonzero;stroke:none"
               id="path4589"
               inkscape:connector-curvature="0" />
          </g>
          <g
             id="g4591"
             transform="translate(153.272,49.5493)">
            <path
               d="m 0,0 -1.705,-3.398 h 3.398 z m -2.028,-4.078 -0.874,-1.704 c -0.195,-0.4 -0.907,-0.119 -0.712,0.313 l 3.258,6.418 C -0.291,1.09 -0.141,1.154 0,1.154 0.14,1.154 0.27,1.09 0.345,0.949 L 3.592,-5.437 C 3.873,-5.901 3.074,-6.17 2.869,-5.75 l -0.841,1.672 z"
               style="fill:#dedede;fill-opacity:1;fill-rule:nonzero;stroke:none"
               id="path4593"
               inkscape:connector-curvature="0" />
          </g>
          <g
             id="g4595"
             transform="translate(158.1938,45.3638)">
            <path
               d="m 0,0 c 0.281,-0.896 1.479,-1.09 2.342,-1.09 0.917,0 2.341,0.281 2.341,1.37 0,0.939 -1.133,1.014 -2.32,1.112 -1.489,0.118 -3.086,0.258 -3.086,1.866 0,1.424 1.64,2.06 2.956,2.06 1.133,0 2.546,-0.269 2.999,-1.499 C 5.395,3.387 4.661,3.193 4.499,3.56 4.176,4.38 3.021,4.52 2.244,4.52 1.521,4.52 0.119,4.229 0.119,3.247 0.119,2.309 1.198,2.211 2.449,2.114 3.928,1.985 5.513,1.909 5.513,0.291 c 0,-1.65 -1.845,-2.157 -3.171,-2.157 -1.101,0 -2.783,0.377 -3.14,1.672 C -0.928,0.28 -0.086,0.442 0,0"
               style="fill:#dedede;fill-opacity:1;fill-rule:nonzero;stroke:none"
               id="path4597"
               inkscape:connector-curvature="0" />
          </g>
          <g
             id="g4599"
             transform="translate(168.6743,44.3711)">
            <path
               d="m 0,0 h 4.261 c 0.453,0 0.518,-0.712 0,-0.712 H -0.28 c -0.303,0 -0.496,0.216 -0.496,0.475 v 5.923 c 0,0.248 0.193,0.463 0.496,0.463 h 4.551 c 0.465,0 0.443,-0.69 -0.01,-0.69 H 0 V 3.032 h 4.057 c 0.43,0 0.453,-0.691 0,-0.691 H 0 Z"
               style="fill:#dedede;fill-opacity:1;fill-rule:nonzero;stroke:none"
               id="path4601"
               inkscape:connector-curvature="0" />
          </g>
          <g
             id="g4603"
             transform="translate(183.7388,50.3584)">
            <path
               d="m 0,0 c 0.248,0.389 0.744,0.259 0.744,-0.194 v -6.214 c 0,-0.518 -0.788,-0.518 -0.788,0 V -1.5 l -2.2,-3.441 c -0.173,-0.312 -0.583,-0.312 -0.744,0 l -2.201,3.431 v -4.898 c 0,-0.518 -0.788,-0.518 -0.788,0 v 6.214 c 0,0.464 0.518,0.583 0.734,0.194 l 2.632,-4.099 z"
               style="fill:#dedede;fill-opacity:1;fill-rule:nonzero;stroke:none"
               id="path4605"
               inkscape:connector-curvature="0" />
          </g>
          <g
             id="g4607"
             transform="translate(187.1948,52.4082)">
            <path
               d="M 0,0 C 0.323,0.432 0.971,0 0.626,-0.356 L -0.248,-1.23 c -0.367,-0.312 -0.755,0.065 -0.55,0.345 z m -0.874,-2.028 c 0,0.539 0.81,0.528 0.81,0 v -6.451 c 0,-0.497 -0.81,-0.518 -0.81,0 z"
               style="fill:#dedede;fill-opacity:1;fill-rule:nonzero;stroke:none"
               id="path4609"
               inkscape:connector-curvature="0" />
          </g>
          <g
             id="g4611"
             transform="translate(189.3745,44.3604)">
            <path
               d="m 0,0 h 2.071 c 1.618,0 2.428,1.37 2.428,2.729 0,1.36 -0.81,2.741 -2.428,2.741 L 0,5.47 Z m -0.28,-0.701 c -0.27,0 -0.496,0.216 -0.496,0.464 v 5.944 c 0,0.248 0.226,0.453 0.496,0.453 h 2.351 c 2.148,0 3.215,-1.715 3.215,-3.431 0,-1.715 -1.067,-3.43 -3.215,-3.43 z"
               style="fill:#dedede;fill-opacity:1;fill-rule:nonzero;stroke:none"
               id="path4613"
               inkscape:connector-curvature="0" />
          </g>
          <g
             id="g4615"
             transform="translate(196.0122,50.3799)">
            <path
               d="M 0,0 C 0,0.54 0.81,0.529 0.81,0 V -6.451 C 0.81,-6.947 0,-6.969 0,-6.451 Z"
               style="fill:#dedede;fill-opacity:1;fill-rule:nonzero;stroke:none"
               id="path4617"
               inkscape:connector-curvature="0" />
          </g>
          <g
             id="g4619"
             transform="translate(201.2778,49.5493)">
            <path
               d="m 0,0 -1.705,-3.398 h 3.398 z m -2.028,-4.078 -0.874,-1.704 c -0.195,-0.4 -0.907,-0.119 -0.712,0.313 l 3.258,6.418 C -0.291,1.09 -0.141,1.154 0,1.154 0.14,1.154 0.27,1.09 0.345,0.949 L 3.592,-5.437 C 3.873,-5.901 3.074,-6.17 2.869,-5.75 l -0.841,1.672 z"
               style="fill:#dedede;fill-opacity:1;fill-rule:nonzero;stroke:none"
               id="path4621"
               inkscape:connector-curvature="0" />
          </g>
          <g
             id="g4623"
             transform="translate(206.1997,45.3638)">
            <path
               d="m 0,0 c 0.281,-0.896 1.479,-1.09 2.342,-1.09 0.917,0 2.341,0.281 2.341,1.37 0,0.939 -1.133,1.014 -2.32,1.112 -1.489,0.118 -3.086,0.258 -3.086,1.866 0,1.424 1.64,2.06 2.956,2.06 1.133,0 2.546,-0.269 2.999,-1.499 C 5.395,3.387 4.661,3.193 4.499,3.56 4.176,4.38 3.021,4.52 2.244,4.52 1.521,4.52 0.119,4.229 0.119,3.247 0.119,2.309 1.198,2.211 2.449,2.114 3.928,1.985 5.513,1.909 5.513,0.291 c 0,-1.65 -1.845,-2.157 -3.171,-2.157 -1.101,0 -2.783,0.377 -3.14,1.672 C -0.928,0.28 -0.086,0.442 0,0"
               style="fill:#dedede;fill-opacity:1;fill-rule:nonzero;stroke:none"
               id="path4625"
               inkscape:connector-curvature="0" />
          </g>
          <g
             id="g4627"
             transform="translate(113.3228,33.3184)">
            <path
               d="m 0,0 h 2.071 c 1.618,0 2.428,1.37 2.428,2.729 0,1.36 -0.81,2.741 -2.428,2.741 L 0,5.47 Z m -0.28,-0.701 c -0.27,0 -0.496,0.216 -0.496,0.464 v 5.944 c 0,0.248 0.226,0.453 0.496,0.453 h 2.351 c 2.148,0 3.215,-1.715 3.215,-3.431 0,-1.715 -1.067,-3.43 -3.215,-3.43 z"
               style="fill:#dedede;fill-opacity:1;fill-rule:nonzero;stroke:none"
               id="path4629"
               inkscape:connector-curvature="0" />
          </g>
          <g
             id="g4631"
             transform="translate(128.0552,39.3379)">
            <path
               d="M 0,0 C 0,0.54 0.81,0.529 0.81,0 V -6.451 C 0.81,-6.947 0,-6.969 0,-6.451 Z"
               style="fill:#dedede;fill-opacity:1;fill-rule:nonzero;stroke:none"
               id="path4633"
               inkscape:connector-curvature="0" />
          </g>
          <g
             id="g4635"
             transform="translate(144.3179,33.8145)">
            <path
               d="m 0,0 c -0.636,-0.841 -1.704,-1.305 -2.751,-1.294 -1.855,0.01 -3.452,1.553 -3.408,3.592 0,1.64 1.229,3.139 2.88,3.452 0.162,0.022 0.367,0.033 0.561,0.033 0.939,0 1.942,-0.324 2.535,-1.014 C 0.141,4.391 -0.409,3.873 -0.744,4.261 -1.348,4.963 -2.352,5.211 -3.16,5.006 -4.347,4.725 -5.383,3.679 -5.383,2.266 c 0.022,-1.521 1.251,-2.794 2.644,-2.827 0.798,-0.011 1.629,0.334 2.103,0.971 v 1.435 h -1.942 c -0.507,0 -0.453,0.712 0,0.712 h 2.287 c 0.313,0 0.41,-0.162 0.41,-0.399 V 0.356 C 0.119,0.237 0.098,0.097 0,0"
               style="fill:#dedede;fill-opacity:1;fill-rule:nonzero;stroke:none"
               id="path4637"
               inkscape:connector-curvature="0" />
          </g>
          <g
             id="g4639"
             transform="translate(154.229,39.3379)">
            <path
               d="M 0,0 C 0,0.54 0.81,0.529 0.81,0 V -6.451 C 0.81,-6.947 0,-6.969 0,-6.451 Z"
               style="fill:#dedede;fill-opacity:1;fill-rule:nonzero;stroke:none"
               id="path4641"
               inkscape:connector-curvature="0" />
          </g>
          <g
             id="g4643"
             transform="translate(169.8003,39.4893)">
            <path
               d="m 0,0 c 0.529,0 0.529,-0.745 0,-0.745 h -2.405 c 0,-1.942 0.01,-3.916 0.01,-5.858 0,-0.269 -0.226,-0.398 -0.41,-0.398 -0.183,0 -0.387,0.129 -0.387,0.398 v 5.858 h -2.396 c -0.507,0 -0.507,0.745 0,0.745 z"
               style="fill:#dedede;fill-opacity:1;fill-rule:nonzero;stroke:none"
               id="path4645"
               inkscape:connector-curvature="0" />
          </g>
          <g
             id="g4647"
             transform="translate(181.0386,38.5073)">
            <path
               d="m 0,0 -1.705,-3.398 h 3.398 z m -2.028,-4.078 -0.874,-1.704 c -0.195,-0.4 -0.907,-0.119 -0.712,0.313 l 3.258,6.418 C -0.291,1.09 -0.141,1.154 0,1.154 0.14,1.154 0.27,1.09 0.345,0.949 L 3.592,-5.437 C 3.873,-5.901 3.074,-6.17 2.869,-5.75 l -0.841,1.672 z"
               style="fill:#dedede;fill-opacity:1;fill-rule:nonzero;stroke:none"
               id="path4649"
               inkscape:connector-curvature="0" />
          </g>
          <g
             id="g4651"
             transform="translate(193.7642,39.3379)">
            <path
               d="M 0,0 C 0,0.54 0.81,0.529 0.81,0 V -6.451 C 0.81,-6.947 0,-6.969 0,-6.451 Z"
               style="fill:#dedede;fill-opacity:1;fill-rule:nonzero;stroke:none"
               id="path4653"
               inkscape:connector-curvature="0" />
          </g>
          <g
             id="g4655"
             transform="translate(204.5239,34.3218)">
            <path
               d="m 0,0 c 0.281,-0.896 1.479,-1.09 2.342,-1.09 0.917,0 2.341,0.281 2.341,1.37 0,0.939 -1.133,1.014 -2.32,1.112 -1.489,0.118 -3.086,0.258 -3.086,1.866 0,1.424 1.64,2.06 2.956,2.06 1.133,0 2.546,-0.269 2.999,-1.499 C 5.395,3.387 4.661,3.193 4.499,3.56 4.176,4.38 3.021,4.52 2.244,4.52 1.521,4.52 0.119,4.229 0.119,3.247 0.119,2.309 1.198,2.211 2.449,2.114 3.928,1.985 5.513,1.909 5.513,0.291 c 0,-1.65 -1.845,-2.157 -3.171,-2.157 -1.101,0 -2.783,0.377 -3.14,1.672 C -0.928,0.28 -0.086,0.442 0,0"
               style="fill:#dedede;fill-opacity:1;fill-rule:nonzero;stroke:none"
               id="path4657"
               inkscape:connector-curvature="0" />
          </g>
        </g>
      </g>
    </g>
  </g>
</svg>
